<svg width="160" height="252" viewBox="0 0 160 252" fill="none" xmlns="http://www.w3.org/2000/svg">
<g id="trade-blue-1.svg" clip-path="url(#clip0_1_1218)">
<g id="&#229;&#155;&#190;&#229;&#177;&#130; 2">
<g id="&#229;&#155;&#190;&#229;&#177;&#130; 1">
<g id="Group">
<path id="Vector" d="M67.5701 43.8101H42.3501V149.82H67.5701V43.8101Z" fill="url(#paint0_linear_1_1218)"/>
<path id="Vector_2" d="M75.4402 35.2202H50.2202V141.23H75.4402V35.2202Z" fill="url(#paint1_linear_1_1218)"/>
<path id="Vector_3" d="M75.4401 35.2202L67.5701 43.8102H42.3501L50.2201 35.2202H75.4401Z" fill="url(#paint2_linear_1_1218)"/>
<path id="Vector_4" d="M109.79 121.51H84.5703V216.4H109.79V121.51Z" fill="url(#paint3_linear_1_1218)"/>
<path id="Vector_5" d="M117.66 112.92H92.4399V207.81H117.66V112.92Z" fill="url(#paint4_linear_1_1218)"/>
<path id="Vector_6" d="M117.65 112.92L109.78 121.51H84.5703L92.4403 112.92H117.65Z" fill="url(#paint5_linear_1_1218)"/>
<path id="Vector_7" d="M152 91.54H126.78V164.95H152V91.54Z" fill="url(#paint6_linear_1_1218)"/>
<path id="Vector_8" d="M159.87 82.9502H134.65V156.36H159.87V82.9502Z" fill="url(#paint7_linear_1_1218)"/>
<path id="Vector_9" opacity="0.6" d="M159.87 156.36L152 164.96H126.78L134.65 156.36H159.87Z" fill="url(#paint8_linear_1_1218)"/>
<path id="Vector_10" opacity="0.6" d="M117.65 207.81L109.78 216.4H84.5703L92.4403 207.81H117.65Z" fill="url(#paint9_linear_1_1218)"/>
<path id="Vector_11" opacity="0.6" d="M75.4401 141.23L67.5701 149.82H42.3501L50.2201 141.23H75.4401Z" fill="url(#paint10_linear_1_1218)"/>
<g id="Group_2">
<path id="Vector_12" d="M25.3601 100.23H0.140137V172.62H25.3601V100.23Z" fill="url(#paint11_linear_1_1218)"/>
<path id="Vector_13" d="M33.2303 91.6401H8.01025V164.03H33.2303V91.6401Z" fill="url(#paint12_linear_1_1218)"/>
<path id="Vector_14" d="M33.2301 91.6401L25.3601 100.23H0.140137L8.01014 91.6401H33.2301Z" fill="url(#paint13_linear_1_1218)"/>
<path id="Vector_15" opacity="0.6" d="M33.2301 164.03L25.3601 172.62H0.140137L8.01014 164.03H33.2301Z" fill="url(#paint14_linear_1_1218)"/>
</g>
<path id="Vector_16" d="M159.87 82.9502L152 91.5402H126.78L134.65 82.9502H159.87Z" fill="url(#paint15_linear_1_1218)"/>
<path id="Vector_17" d="M16.6899 168.33H16.6799C15.5588 168.33 14.6499 169.239 14.6499 170.36V205.78C14.6499 206.901 15.5588 207.81 16.6799 207.81H16.6899C17.811 207.81 18.7199 206.901 18.7199 205.78V170.36C18.7199 169.239 17.811 168.33 16.6899 168.33Z" fill="url(#paint16_linear_1_1218)"/>
<path id="Vector_18" d="M58.9003 145.521H58.8904C57.7692 145.521 56.8604 146.429 56.8604 147.551V182.971C56.8604 184.092 57.7692 185.001 58.8904 185.001H58.9003C60.0215 185.001 60.9304 184.092 60.9304 182.971V147.551C60.9304 146.429 60.0215 145.521 58.9003 145.521Z" fill="url(#paint17_linear_1_1218)"/>
<path id="Vector_19" d="M101.12 212.11H101.11C99.9889 212.11 99.0801 213.019 99.0801 214.14V249.56C99.0801 250.681 99.9889 251.59 101.11 251.59H101.12C102.241 251.59 103.15 250.681 103.15 249.56V214.14C103.15 213.019 102.241 212.11 101.12 212.11Z" fill="url(#paint18_linear_1_1218)"/>
<path id="Vector_20" d="M143.33 160.66H143.32C142.199 160.66 141.29 161.569 141.29 162.69V198.11C141.29 199.231 142.199 200.14 143.32 200.14H143.33C144.451 200.14 145.36 199.231 145.36 198.11V162.69C145.36 161.569 144.451 160.66 143.33 160.66Z" fill="url(#paint19_linear_1_1218)"/>
<path id="Vector_21" d="M17.5503 96.5601H17.5603C18.6815 96.5601 19.5903 95.6512 19.5903 94.5301L19.5903 37.8701C19.5903 36.7489 18.6815 35.8401 17.5603 35.8401H17.5503C16.4292 35.8401 15.5203 36.7489 15.5203 37.8701L15.5203 94.5301C15.5203 95.6512 16.4292 96.5601 17.5503 96.5601Z" fill="url(#paint20_linear_1_1218)"/>
<path id="Vector_22" d="M58.8902 40.2603H58.9002C60.0213 40.2603 60.9302 39.3514 60.9302 38.2303L60.9302 2.81025C60.9302 1.68911 60.0213 0.780254 58.9002 0.780254H58.8902C57.769 0.780254 56.8602 1.68911 56.8602 2.81025L56.8602 38.2303C56.8602 39.3514 57.769 40.2603 58.8902 40.2603Z" fill="url(#paint21_linear_1_1218)"/>
<path id="Vector_23" d="M101.84 118.43H101.85C102.972 118.43 103.88 117.521 103.88 116.4V80.9802C103.88 79.859 102.972 78.9502 101.85 78.9502H101.84C100.719 78.9502 99.8104 79.859 99.8104 80.9802V116.4C99.8104 117.521 100.719 118.43 101.84 118.43Z" fill="url(#paint22_linear_1_1218)"/>
<path id="Vector_24" d="M144.06 88.2202H144.07C145.191 88.2202 146.1 87.3114 146.1 86.1902V50.7702C146.1 49.6491 145.191 48.7402 144.07 48.7402H144.06C142.939 48.7402 142.03 49.6491 142.03 50.7702V86.1902C142.03 87.3114 142.939 88.2202 144.06 88.2202Z" fill="url(#paint23_linear_1_1218)"/>
</g>
</g>
</g>
</g>
<defs>
<linearGradient id="paint0_linear_1_1218" x1="54.9601" y1="27.1101" x2="54.9601" y2="132.47" gradientUnits="userSpaceOnUse">
<stop offset="0.14" stop-color="#03E7F5"/>
<stop offset="0.23" stop-color="#03D5F4" stop-opacity="0.9"/>
<stop offset="0.57" stop-color="#0191F1" stop-opacity="0.53"/>
<stop offset="0.8" stop-color="#0066F0" stop-opacity="0.29"/>
<stop offset="0.91" stop-color="#0055EF" stop-opacity="0.2"/>
</linearGradient>
<linearGradient id="paint1_linear_1_1218" x1="62.8302" y1="20.4902" x2="62.8302" y2="140.84" gradientUnits="userSpaceOnUse">
<stop offset="0.14" stop-color="#03E7F5"/>
<stop offset="0.23" stop-color="#03D5F4" stop-opacity="0.9"/>
<stop offset="0.57" stop-color="#0191F1" stop-opacity="0.53"/>
<stop offset="0.8" stop-color="#0066F0" stop-opacity="0.29"/>
<stop offset="0.91" stop-color="#0055EF" stop-opacity="0.2"/>
</linearGradient>
<linearGradient id="paint2_linear_1_1218" x1="34.8901" y1="69.6502" x2="75.4801" y2="18.6902" gradientUnits="userSpaceOnUse">
<stop offset="0.14" stop-color="#03E7F5"/>
<stop offset="0.23" stop-color="#03D5F4" stop-opacity="0.9"/>
<stop offset="0.57" stop-color="#0191F1" stop-opacity="0.53"/>
<stop offset="0.8" stop-color="#0066F0" stop-opacity="0.29"/>
<stop offset="0.91" stop-color="#0055EF" stop-opacity="0.2"/>
</linearGradient>
<linearGradient id="paint3_linear_1_1218" x1="97.1703" y1="106.57" x2="97.1703" y2="200.87" gradientUnits="userSpaceOnUse">
<stop offset="0.14" stop-color="#03E7F5"/>
<stop offset="0.23" stop-color="#03D5F4" stop-opacity="0.9"/>
<stop offset="0.57" stop-color="#0191F1" stop-opacity="0.53"/>
<stop offset="0.8" stop-color="#0066F0" stop-opacity="0.29"/>
<stop offset="0.91" stop-color="#0055EF" stop-opacity="0.2"/>
</linearGradient>
<linearGradient id="paint4_linear_1_1218" x1="105.04" y1="99.7304" x2="105.04" y2="207.46" gradientUnits="userSpaceOnUse">
<stop offset="0.14" stop-color="#03E7F5"/>
<stop offset="0.23" stop-color="#03D5F4" stop-opacity="0.9"/>
<stop offset="0.57" stop-color="#0191F1" stop-opacity="0.53"/>
<stop offset="0.8" stop-color="#0066F0" stop-opacity="0.29"/>
<stop offset="0.91" stop-color="#0055EF" stop-opacity="0.2"/>
</linearGradient>
<linearGradient id="paint5_linear_1_1218" x1="77.1103" y1="147.35" x2="117.7" y2="96.3904" gradientUnits="userSpaceOnUse">
<stop offset="0.14" stop-color="#03E7F5"/>
<stop offset="0.23" stop-color="#03D5F4" stop-opacity="0.9"/>
<stop offset="0.57" stop-color="#0191F1" stop-opacity="0.53"/>
<stop offset="0.8" stop-color="#0066F0" stop-opacity="0.29"/>
<stop offset="0.91" stop-color="#0055EF" stop-opacity="0.2"/>
</linearGradient>
<linearGradient id="paint6_linear_1_1218" x1="139.39" y1="79.98" x2="139.39" y2="152.94" gradientUnits="userSpaceOnUse">
<stop offset="0.14" stop-color="#03E7F5"/>
<stop offset="0.23" stop-color="#03D5F4" stop-opacity="0.9"/>
<stop offset="0.57" stop-color="#0191F1" stop-opacity="0.53"/>
<stop offset="0.8" stop-color="#0066F0" stop-opacity="0.29"/>
<stop offset="0.91" stop-color="#0055EF" stop-opacity="0.2"/>
</linearGradient>
<linearGradient id="paint7_linear_1_1218" x1="147.26" y1="72.7502" x2="147.26" y2="156.09" gradientUnits="userSpaceOnUse">
<stop offset="0.14" stop-color="#03E7F5"/>
<stop offset="0.23" stop-color="#03D5F4" stop-opacity="0.9"/>
<stop offset="0.57" stop-color="#0191F1" stop-opacity="0.53"/>
<stop offset="0.8" stop-color="#0066F0" stop-opacity="0.29"/>
<stop offset="0.91" stop-color="#0055EF" stop-opacity="0.2"/>
</linearGradient>
<linearGradient id="paint8_linear_1_1218" x1="161.75" y1="160.66" x2="123.39" y2="160.66" gradientUnits="userSpaceOnUse">
<stop offset="0.14" stop-color="#03E7F5"/>
<stop offset="0.23" stop-color="#03D5F4" stop-opacity="0.9"/>
<stop offset="0.57" stop-color="#0191F1" stop-opacity="0.53"/>
<stop offset="0.8" stop-color="#0066F0" stop-opacity="0.29"/>
<stop offset="0.91" stop-color="#0055EF" stop-opacity="0.2"/>
</linearGradient>
<linearGradient id="paint9_linear_1_1218" x1="119.53" y1="212.11" x2="81.1803" y2="212.11" gradientUnits="userSpaceOnUse">
<stop offset="0.14" stop-color="#03E7F5"/>
<stop offset="0.23" stop-color="#03D5F4" stop-opacity="0.9"/>
<stop offset="0.57" stop-color="#0191F1" stop-opacity="0.53"/>
<stop offset="0.8" stop-color="#0066F0" stop-opacity="0.29"/>
<stop offset="0.91" stop-color="#0055EF" stop-opacity="0.2"/>
</linearGradient>
<linearGradient id="paint10_linear_1_1218" x1="77.3201" y1="145.52" x2="38.9701" y2="145.52" gradientUnits="userSpaceOnUse">
<stop offset="0.14" stop-color="#03E7F5"/>
<stop offset="0.23" stop-color="#03D5F4" stop-opacity="0.9"/>
<stop offset="0.57" stop-color="#0191F1" stop-opacity="0.53"/>
<stop offset="0.8" stop-color="#0066F0" stop-opacity="0.29"/>
<stop offset="0.91" stop-color="#0055EF" stop-opacity="0.2"/>
</linearGradient>
<linearGradient id="paint11_linear_1_1218" x1="12.7501" y1="88.83" x2="12.7501" y2="160.78" gradientUnits="userSpaceOnUse">
<stop offset="0.14" stop-color="#03E7F5"/>
<stop offset="0.23" stop-color="#03D5F4" stop-opacity="0.9"/>
<stop offset="0.57" stop-color="#0191F1" stop-opacity="0.53"/>
<stop offset="0.8" stop-color="#0066F0" stop-opacity="0.29"/>
<stop offset="0.91" stop-color="#0055EF" stop-opacity="0.2"/>
</linearGradient>
<linearGradient id="paint12_linear_1_1218" x1="20.6203" y1="81.5801" x2="20.6203" y2="163.77" gradientUnits="userSpaceOnUse">
<stop offset="0.14" stop-color="#03E7F5"/>
<stop offset="0.23" stop-color="#03D5F4" stop-opacity="0.9"/>
<stop offset="0.57" stop-color="#0191F1" stop-opacity="0.53"/>
<stop offset="0.8" stop-color="#0066F0" stop-opacity="0.29"/>
<stop offset="0.91" stop-color="#0055EF" stop-opacity="0.2"/>
</linearGradient>
<linearGradient id="paint13_linear_1_1218" x1="16.6801" y1="128.39" x2="16.6801" y2="46.0302" gradientUnits="userSpaceOnUse">
<stop offset="0.14" stop-color="#03E7F5"/>
<stop offset="0.23" stop-color="#03D5F4" stop-opacity="0.9"/>
<stop offset="0.57" stop-color="#0191F1" stop-opacity="0.53"/>
<stop offset="0.8" stop-color="#0066F0" stop-opacity="0.29"/>
<stop offset="0.91" stop-color="#0055EF" stop-opacity="0.2"/>
</linearGradient>
<linearGradient id="paint14_linear_1_1218" x1="35.1101" y1="168.33" x2="-3.24986" y2="168.33" gradientUnits="userSpaceOnUse">
<stop offset="0.14" stop-color="#03E7F5"/>
<stop offset="0.23" stop-color="#03D5F4" stop-opacity="0.9"/>
<stop offset="0.57" stop-color="#0191F1" stop-opacity="0.53"/>
<stop offset="0.8" stop-color="#0066F0" stop-opacity="0.29"/>
<stop offset="0.91" stop-color="#0055EF" stop-opacity="0.2"/>
</linearGradient>
<linearGradient id="paint15_linear_1_1218" x1="119.32" y1="117.38" x2="159.91" y2="66.4202" gradientUnits="userSpaceOnUse">
<stop offset="0.14" stop-color="#03E7F5"/>
<stop offset="0.23" stop-color="#03D5F4" stop-opacity="0.9"/>
<stop offset="0.57" stop-color="#0191F1" stop-opacity="0.53"/>
<stop offset="0.8" stop-color="#0066F0" stop-opacity="0.29"/>
<stop offset="0.91" stop-color="#0055EF" stop-opacity="0.2"/>
</linearGradient>
<linearGradient id="paint16_linear_1_1218" x1="16.6799" y1="162.84" x2="16.6799" y2="207.67" gradientUnits="userSpaceOnUse">
<stop offset="0.14" stop-color="#03E7F5"/>
<stop offset="0.31" stop-color="#02C5F4" stop-opacity="0.77"/>
<stop offset="0.6" stop-color="#0189F1" stop-opacity="0.36"/>
<stop offset="0.81" stop-color="#0064F0" stop-opacity="0.1"/>
<stop offset="0.91" stop-color="#0055EF" stop-opacity="0"/>
</linearGradient>
<linearGradient id="paint17_linear_1_1218" x1="58.9004" y1="140.041" x2="58.9004" y2="184.861" gradientUnits="userSpaceOnUse">
<stop offset="0.14" stop-color="#03E7F5"/>
<stop offset="0.31" stop-color="#02C5F4" stop-opacity="0.77"/>
<stop offset="0.6" stop-color="#0189F1" stop-opacity="0.36"/>
<stop offset="0.81" stop-color="#0064F0" stop-opacity="0.1"/>
<stop offset="0.91" stop-color="#0055EF" stop-opacity="0"/>
</linearGradient>
<linearGradient id="paint18_linear_1_1218" x1="101.11" y1="206.62" x2="101.11" y2="251.44" gradientUnits="userSpaceOnUse">
<stop offset="0.14" stop-color="#03E7F5"/>
<stop offset="0.31" stop-color="#02C5F4" stop-opacity="0.77"/>
<stop offset="0.6" stop-color="#0189F1" stop-opacity="0.36"/>
<stop offset="0.81" stop-color="#0064F0" stop-opacity="0.1"/>
<stop offset="0.91" stop-color="#0055EF" stop-opacity="0"/>
</linearGradient>
<linearGradient id="paint19_linear_1_1218" x1="143.32" y1="155.17" x2="143.32" y2="200" gradientUnits="userSpaceOnUse">
<stop offset="0.14" stop-color="#03E7F5"/>
<stop offset="0.31" stop-color="#02C5F4" stop-opacity="0.77"/>
<stop offset="0.6" stop-color="#0189F1" stop-opacity="0.36"/>
<stop offset="0.81" stop-color="#0064F0" stop-opacity="0.1"/>
<stop offset="0.91" stop-color="#0055EF" stop-opacity="0"/>
</linearGradient>
<linearGradient id="paint20_linear_1_1218" x1="17.5603" y1="105" x2="17.5603" y2="36.0601" gradientUnits="userSpaceOnUse">
<stop offset="0.14" stop-color="#03E7F5"/>
<stop offset="0.31" stop-color="#02C5F4" stop-opacity="0.77"/>
<stop offset="0.6" stop-color="#0189F1" stop-opacity="0.36"/>
<stop offset="0.81" stop-color="#0064F0" stop-opacity="0.1"/>
<stop offset="0.91" stop-color="#0055EF" stop-opacity="0"/>
</linearGradient>
<linearGradient id="paint21_linear_1_1218" x1="58.9002" y1="45.7503" x2="58.9002" y2="0.920255" gradientUnits="userSpaceOnUse">
<stop offset="0.14" stop-color="#03E7F5"/>
<stop offset="0.31" stop-color="#02C5F4" stop-opacity="0.77"/>
<stop offset="0.6" stop-color="#0189F1" stop-opacity="0.36"/>
<stop offset="0.81" stop-color="#0064F0" stop-opacity="0.1"/>
<stop offset="0.91" stop-color="#0055EF" stop-opacity="0"/>
</linearGradient>
<linearGradient id="paint22_linear_1_1218" x1="101.85" y1="123.91" x2="101.85" y2="79.0902" gradientUnits="userSpaceOnUse">
<stop offset="0.14" stop-color="#03E7F5"/>
<stop offset="0.31" stop-color="#02C5F4" stop-opacity="0.77"/>
<stop offset="0.6" stop-color="#0189F1" stop-opacity="0.36"/>
<stop offset="0.81" stop-color="#0064F0" stop-opacity="0.1"/>
<stop offset="0.91" stop-color="#0055EF" stop-opacity="0"/>
</linearGradient>
<linearGradient id="paint23_linear_1_1218" x1="144.07" y1="93.7102" x2="144.07" y2="48.8802" gradientUnits="userSpaceOnUse">
<stop offset="0.14" stop-color="#03E7F5"/>
<stop offset="0.31" stop-color="#02C5F4" stop-opacity="0.77"/>
<stop offset="0.6" stop-color="#0189F1" stop-opacity="0.36"/>
<stop offset="0.81" stop-color="#0064F0" stop-opacity="0.1"/>
<stop offset="0.91" stop-color="#0055EF" stop-opacity="0"/>
</linearGradient>
<clipPath id="clip0_1_1218">
<rect width="159.73" height="250.81" fill="white" transform="translate(0.140137 0.780273)"/>
</clipPath>
</defs>
</svg>
