<svg width="218" height="234" viewBox="0 0 218 234" fill="none" xmlns="http://www.w3.org/2000/svg">
<g id="liquidity-blue-1.svg" clip-path="url(#clip0_1_1273)">
<g id="&#229;&#155;&#190;&#229;&#177;&#130; 2">
<g id="&#229;&#155;&#190;&#229;&#177;&#130; 1">
<g id="Group">
<path id="Vector" d="M38.25 0.410156V193.46C38.25 176.27 69.93 162.33 109 162.33C148.07 162.33 179.75 176.27 179.75 193.46V0.410156H38.25Z" fill="url(#paint0_linear_1_1273)"/>
<path id="Vector_2" d="M113.51 144.76C172.87 145.41 192.08 166.97 197.14 174.89C197.36 175.226 197.502 175.606 197.557 176.004C197.612 176.401 197.578 176.806 197.457 177.189C197.337 177.571 197.133 177.923 196.86 178.217C196.587 178.511 196.252 178.741 195.88 178.89L193.66 179.8L196.17 178.8L195.88 178.92C195.297 179.168 194.646 179.203 194.039 179.021C193.433 178.838 192.909 178.449 192.56 177.92C190.83 175.24 186.8 170.19 178.76 165.17C159.89 153.37 133.33 150.49 113.45 150.27C112.738 150.26 112.059 149.97 111.56 149.463C111.06 148.955 110.78 148.272 110.78 147.56C110.769 147.196 110.832 146.832 110.965 146.492C111.097 146.152 111.297 145.843 111.551 145.581C111.806 145.32 112.111 145.113 112.447 144.972C112.784 144.831 113.145 144.759 113.51 144.76Z" fill="url(#paint1_linear_1_1273)"/>
<path id="Vector_3" d="M109 219.18C148.206 219.18 179.99 206.456 179.99 190.76C179.99 175.064 148.206 162.34 109 162.34C69.7931 162.34 38.0098 175.064 38.0098 190.76C38.0098 206.456 69.7931 219.18 109 219.18Z" fill="url(#paint2_linear_1_1273)"/>
<path id="Vector_4" d="M109 208.13C148.206 208.13 179.99 196.615 179.99 182.41C179.99 168.205 148.206 156.69 109 156.69C69.7931 156.69 38.0098 168.205 38.0098 182.41C38.0098 196.615 69.7931 208.13 109 208.13Z" fill="url(#paint3_linear_1_1273)"/>
<path id="Vector_5" d="M109 152.98C148.206 152.98 179.99 141.465 179.99 127.26C179.99 113.055 148.206 101.54 109 101.54C69.7931 101.54 38.0098 113.055 38.0098 127.26C38.0098 141.465 69.7931 152.98 109 152.98Z" fill="url(#paint4_linear_1_1273)"/>
<path id="Vector_6" d="M109 143.15C148.206 143.15 179.99 131.635 179.99 117.43C179.99 103.225 148.206 91.71 109 91.71C69.7931 91.71 38.0098 103.225 38.0098 117.43C38.0098 131.635 69.7931 143.15 109 143.15Z" fill="url(#paint5_linear_1_1273)"/>
<path id="Vector_7" d="M109 166.28C48.9 166.28 0 148.41 0 126.49C0 104.57 48.9 86.71 109 86.71C169.1 86.71 218 104.56 218 126.49C218 148.42 169.1 166.28 109 166.28ZM109 87.63C49.41 87.63 0.92 105.07 0.92 126.49C0.92 147.91 49.41 165.35 109 165.35C168.59 165.35 217.07 147.92 217.07 126.49C217.07 105.06 168.59 87.63 109 87.63Z" fill="url(#paint6_linear_1_1273)"/>
<path id="Vector_8" d="M109 105.81C63.8501 105.81 27.1201 92.4103 27.1201 75.9303C27.1201 59.4503 63.8501 46.0503 109 46.0503C154.15 46.0503 190.88 59.4103 190.88 75.9303C190.88 92.4503 154.15 105.81 109 105.81ZM109 46.7403C64.2301 46.7403 27.8201 59.8303 27.8201 75.9303C27.8201 92.0303 64.2301 105.12 109 105.12C153.77 105.12 190.18 92.0203 190.18 75.9303C190.18 59.8403 153.76 46.7403 109 46.7403Z" fill="url(#paint7_linear_1_1273)"/>
<path id="Vector_9" d="M101.22 233.18C41.86 232.54 22.65 210.98 17.59 203.05C17.3718 202.715 17.2304 202.335 17.1758 201.939C17.1212 201.542 17.1548 201.138 17.2742 200.756C17.3936 200.374 17.5958 200.023 17.8665 199.728C18.1372 199.434 18.4696 199.202 18.84 199.05L21.06 198.15L18.55 199.15L18.84 199.03C19.4245 198.782 20.0775 198.746 20.6857 198.929C21.2939 199.111 21.819 199.501 22.17 200.03C23.9 202.71 27.93 207.77 35.96 212.79C54.84 224.58 81.39 227.46 101.28 227.69C101.992 227.701 102.671 227.991 103.17 228.498C103.67 229.005 103.95 229.689 103.95 230.4C103.959 230.764 103.896 231.125 103.762 231.464C103.629 231.802 103.429 232.11 103.175 232.369C102.92 232.629 102.615 232.834 102.28 232.973C101.944 233.113 101.584 233.183 101.22 233.18Z" fill="url(#paint8_linear_1_1273)"/>
<g id="Group_2" opacity="0.47">
<path id="Vector_10" d="M126.36 192.62C125.568 191.937 124.574 191.533 123.53 191.47C122.172 191.322 120.798 191.511 119.53 192.02C115.548 193.858 111.133 194.55 106.78 194.02C102.1 193.48 99.37 192.2 97.04 189.46C96.2358 188.664 95.1695 188.188 94.04 188.12C92.8039 187.983 91.5529 188.127 90.38 188.54C87.89 189.43 86.82 191.3 88.01 192.69C91.55 196.86 96.41 199.09 103.78 199.93C110.838 200.782 117.995 199.718 124.5 196.85C126.9 195.84 127.73 193.95 126.36 192.62Z" fill="url(#paint9_linear_1_1273)"/>
<path id="Vector_11" d="M131.349 186.7C134.465 186.342 136.819 184.557 136.607 182.713C136.395 180.87 133.697 179.666 130.581 180.024C127.464 180.382 125.11 182.167 125.322 184.011C125.534 185.854 128.232 187.058 131.349 186.7Z" fill="url(#paint10_linear_1_1273)"/>
<path id="Vector_12" d="M91.7198 181.87C89.6498 180.62 89.8698 178.47 92.2198 177.06L106 168.78C108.35 167.37 111.92 167.24 114 168.48C116.07 169.72 115.85 171.87 113.5 173.28L99.7098 181.57C97.3698 182.98 93.7898 183.11 91.7198 181.87Z" fill="url(#paint11_linear_1_1273)"/>
<path id="Vector_13" d="M109.19 183.86C107.12 182.62 107.34 180.47 109.69 179.06L123.48 170.77C125.83 169.36 129.4 169.23 131.48 170.48C133.55 171.72 133.33 173.87 130.98 175.28L117.19 183.56C114.84 184.97 111.26 185.11 109.19 183.86Z" fill="url(#paint12_linear_1_1273)"/>
</g>
</g>
</g>
</g>
</g>
<defs>
<linearGradient id="paint0_linear_1_1273" x1="109" y1="244.53" x2="109" y2="-19.6698" gradientUnits="userSpaceOnUse">
<stop stop-color="#03E7F5"/>
<stop offset="0.19" stop-color="#02C5F4" stop-opacity="0.77"/>
<stop offset="0.53" stop-color="#0189F1" stop-opacity="0.36"/>
<stop offset="0.77" stop-color="#0064F0" stop-opacity="0.1"/>
<stop offset="0.88" stop-color="#0055EF" stop-opacity="0"/>
</linearGradient>
<linearGradient id="paint1_linear_1_1273" x1="204.57" y1="175.54" x2="108.68" y2="140.21" gradientUnits="userSpaceOnUse">
<stop stop-color="#03E7F5"/>
<stop offset="0.11" stop-color="#03D5F4" stop-opacity="0.9"/>
<stop offset="0.55" stop-color="#0191F1" stop-opacity="0.53"/>
<stop offset="0.86" stop-color="#0066F0" stop-opacity="0.29"/>
<stop offset="1" stop-color="#0055EF" stop-opacity="0.2"/>
</linearGradient>
<linearGradient id="paint2_linear_1_1273" x1="109" y1="226.31" x2="109" y2="158.12" gradientUnits="userSpaceOnUse">
<stop stop-color="#03E7F5"/>
<stop offset="0.11" stop-color="#03D5F4" stop-opacity="0.9"/>
<stop offset="0.55" stop-color="#0191F1" stop-opacity="0.53"/>
<stop offset="0.86" stop-color="#0066F0" stop-opacity="0.29"/>
<stop offset="1" stop-color="#0055EF" stop-opacity="0.2"/>
</linearGradient>
<linearGradient id="paint3_linear_1_1273" x1="109" y1="153.1" x2="109" y2="237.15" gradientUnits="userSpaceOnUse">
<stop stop-color="#03E7F5"/>
<stop offset="0.21" stop-color="#02C5F4" stop-opacity="0.77"/>
<stop offset="0.6" stop-color="#0189F1" stop-opacity="0.36"/>
<stop offset="0.87" stop-color="#0064F0" stop-opacity="0.1"/>
<stop offset="1" stop-color="#0055EF" stop-opacity="0"/>
</linearGradient>
<linearGradient id="paint4_linear_1_1273" x1="109" y1="150.81" x2="109" y2="104.61" gradientUnits="userSpaceOnUse">
<stop stop-color="#03E7F5"/>
<stop offset="0.08" stop-color="#03D5F4" stop-opacity="0.9"/>
<stop offset="0.4" stop-color="#0191F1" stop-opacity="0.53"/>
<stop offset="0.63" stop-color="#0066F0" stop-opacity="0.29"/>
<stop offset="0.73" stop-color="#0055EF" stop-opacity="0.2"/>
</linearGradient>
<linearGradient id="paint5_linear_1_1273" x1="109" y1="147.43" x2="109" y2="81.35" gradientUnits="userSpaceOnUse">
<stop stop-color="#03E7F5"/>
<stop offset="0.11" stop-color="#03D5F4" stop-opacity="0.9"/>
<stop offset="0.55" stop-color="#0191F1" stop-opacity="0.53"/>
<stop offset="0.86" stop-color="#0066F0" stop-opacity="0.29"/>
<stop offset="1" stop-color="#0055EF" stop-opacity="0.2"/>
</linearGradient>
<linearGradient id="paint6_linear_1_1273" x1="109" y1="174.79" x2="109" y2="81.42" gradientUnits="userSpaceOnUse">
<stop stop-color="#03E7F5"/>
<stop offset="0.11" stop-color="#03D5F4" stop-opacity="0.9"/>
<stop offset="0.55" stop-color="#0191F1" stop-opacity="0.53"/>
<stop offset="0.86" stop-color="#0066F0" stop-opacity="0.29"/>
<stop offset="1" stop-color="#0055EF" stop-opacity="0.2"/>
</linearGradient>
<linearGradient id="paint7_linear_1_1273" x1="109" y1="112.21" x2="109" y2="42.0703" gradientUnits="userSpaceOnUse">
<stop stop-color="#03E7F5"/>
<stop offset="0.11" stop-color="#03D5F4" stop-opacity="0.9"/>
<stop offset="0.55" stop-color="#0191F1" stop-opacity="0.53"/>
<stop offset="0.86" stop-color="#0066F0" stop-opacity="0.29"/>
<stop offset="1" stop-color="#0055EF" stop-opacity="0.2"/>
</linearGradient>
<linearGradient id="paint8_linear_1_1273" x1="110.34" y1="235.19" x2="23.01" y2="207.93" gradientUnits="userSpaceOnUse">
<stop stop-color="#03E7F5"/>
<stop offset="0.11" stop-color="#03D5F4" stop-opacity="0.9"/>
<stop offset="0.55" stop-color="#0191F1" stop-opacity="0.53"/>
<stop offset="0.86" stop-color="#0066F0" stop-opacity="0.29"/>
<stop offset="1" stop-color="#0055EF" stop-opacity="0.2"/>
</linearGradient>
<linearGradient id="paint9_linear_1_1273" x1="110.861" y1="195.654" x2="101.733" y2="171.72" gradientUnits="userSpaceOnUse">
<stop stop-color="#5AC9FF"/>
<stop offset="1" stop-color="#00E9E5"/>
</linearGradient>
<linearGradient id="paint10_linear_1_1273" x1="133.806" y1="186.286" x2="125.493" y2="164.391" gradientUnits="userSpaceOnUse">
<stop stop-color="#5AC9FF"/>
<stop offset="1" stop-color="#00E9E5"/>
</linearGradient>
<linearGradient id="paint11_linear_1_1273" x1="123.9" y1="202.945" x2="120.535" y2="171.584" gradientUnits="userSpaceOnUse">
<stop stop-color="#5AC9FF"/>
<stop offset="1" stop-color="#00E9E5"/>
</linearGradient>
<linearGradient id="paint12_linear_1_1273" x1="133.134" y1="194.906" x2="129.771" y2="163.541" gradientUnits="userSpaceOnUse">
<stop stop-color="#5AC9FF"/>
<stop offset="1" stop-color="#00E9E5"/>
</linearGradient>
<clipPath id="clip0_1_1273">
<rect width="218" height="232.77" fill="white" transform="translate(0 0.410156)"/>
</clipPath>
</defs>
</svg>
