<svg width="88" height="89" viewBox="0 0 88 89" fill="none" xmlns="http://www.w3.org/2000/svg">
<path d="M65.5597 62.8065C66.1113 60.1429 66.4134 57.4338 66.4621 54.7141C66.4621 39.7393 58.5285 26.143 47.9866 14.6392C42.7427 16.7006 37.8282 19.517 33.3986 22.9993C41.9273 29.8024 49.8609 39.0154 49.8609 49.6564C49.9704 56.5356 48.0715 63.2973 44.3966 69.1137L17.918 83.7712C21.916 85.6472 26.1999 86.8405 30.5921 87.3016C56.6244 88.9776 64.5085 66.2973 65.5597 62.8065Z" fill="#14B941"/>
<path d="M32.012 65.762C32.6711 65.8268 33.3332 65.8566 33.9954 65.8512C33.9954 65.8512 20.8057 66.3768 10.5911 57.5804C6.54573 54.1177 3.27773 49.8392 1.00129 45.0254C0.53198 47.3099 0.289487 49.6351 0.277344 51.9673C0.277344 72.8527 11.3646 81.7185 21.5693 85.2887C26.0264 83.8603 30.2697 81.8353 34.1838 79.269H34.2334L34.4813 79.1004C39.2614 75.8377 48.6231 67.8346 49.6743 53.6334C49.6743 53.6334 46.0347 66.6743 32.012 65.762Z" fill="#8859EC"/>
<path d="M48.0585 14.7186C43.6283 9.93137 38.8519 5.4765 33.768 1.39014C18.3569 13.1022 4.30433 28.91 1.00195 45.0252C3.25967 49.8568 6.51436 54.1558 10.5521 57.6398C20.7667 66.3965 33.9961 65.8511 33.9961 65.8511C29.2061 65.8511 16.9288 63.6594 16.9288 48.1392C16.8891 33.7991 36.2572 19.0028 48.0585 14.7186Z" fill="#1DFF5B"/>
</svg>
