<svg width="88" height="89" viewBox="0 0 88 89" fill="none" xmlns="http://www.w3.org/2000/svg">
<g clip-path="url(#clip0_127_1650)">
<g clip-path="url(#clip1_127_1650)">
<path d="M0 49.0005V63.9383C0 63.9383 9.73851 73.0284 31.3849 73.0284C53.0313 73.0284 63.6658 64.1506 63.6658 64.1506V49.0005C63.6658 49.0005 48.7279 57.6661 31.8329 57.6661C14.9379 57.6661 0 49.0005 0 49.0005Z" fill="#1DFF5B"/>
<path d="M0 64.3623V79.2884C0 79.2884 9.73851 88.3902 31.3849 88.3902C53.0313 88.3902 63.6658 79.5124 63.6658 79.5124V64.3623C63.6658 64.3623 48.7043 73.0161 31.8329 73.0161C14.9615 73.0161 0 64.3623 0 64.3623Z" fill="#8859EC"/>
<path d="M31.8211 57.6424C49.3954 57.6424 63.6422 53.0132 63.6422 47.3027C63.6422 41.5921 49.3954 36.9629 31.8211 36.9629C14.2468 36.9629 0 41.5921 0 47.3027C0 53.0132 14.2468 57.6424 31.8211 57.6424Z" fill="#8859EC"/>
<path d="M31.8337 50.9573V0.390137L10.8594 9.82211C10.9301 31.8929 18.7705 44.5907 31.8337 50.9573Z" fill="#1DFF5B"/>
<path d="M31.832 0.390137V50.9573C44.8717 44.5907 52.712 31.8929 52.7828 9.82211L31.832 0.390137Z" fill="#14B941"/>
<path d="M32.045 36.3849C31.5747 36.4061 31.1088 36.286 30.7074 36.0401C30.3059 35.7942 29.9872 35.4338 29.7924 35.0052C29.5975 34.5766 29.5354 34.0995 29.614 33.6354C29.6927 33.1712 29.9085 32.7412 30.2336 32.4007C30.5588 32.0603 30.9784 31.8249 31.4385 31.725C31.8985 31.6251 32.378 31.6652 32.815 31.8401C33.2521 32.015 33.6268 32.3168 33.8909 32.7065C34.155 33.0962 34.2964 33.5561 34.2969 34.0269C34.2975 34.6343 34.0637 35.2185 33.6442 35.6578C33.2247 36.0971 32.6518 36.3575 32.045 36.3849ZM32.9175 30.3012H30.8896L28.5316 12.0386C28.5249 11.5957 28.6084 11.156 28.777 10.7464C28.9456 10.3368 29.1958 9.9657 29.5123 9.65579C29.8288 9.34588 30.2051 9.10361 30.6182 8.9437C31.0313 8.7838 31.4726 8.70962 31.9153 8.72566C32.3716 8.68195 32.832 8.73586 33.2659 8.8838C33.6998 9.03173 34.0972 9.27031 34.4317 9.58368C34.7663 9.89704 35.0303 10.278 35.2063 10.7013C35.3822 11.1245 35.4661 11.5804 35.4523 12.0386L32.9175 30.3012Z" fill="white"/>
</g>
</g>
<defs>
<clipPath id="clip0_127_1650">
<rect width="88" height="88" fill="white" transform="translate(0 0.390137)"/>
</clipPath>
<clipPath id="clip1_127_1650">
<rect width="88" height="88" fill="white" transform="translate(0 0.390137)"/>
</clipPath>
</defs>
</svg>
