<svg width="211" height="118" viewBox="0 0 211 118" fill="none" xmlns="http://www.w3.org/2000/svg">
<g id="trade-icon-4.svg">
<path id="Vector" d="M77.2085 97.9291L76.0166 97.0102L98.7541 11.2554L100.337 11.6739L78.1002 95.5362L152.2 52.9545L153.019 54.3739L77.2085 97.9291Z" fill="url(#paint0_linear_1_1075)"/>
<path id="Vector_2" d="M88.4001 104.07L87.008 103.505L86.3711 14.7845L87.9998 14.7754L88.6276 101.531L148.606 41.1524L149.771 42.3079L88.4001 104.07Z" fill="url(#paint1_linear_1_1075)"/>
<path id="Vector_3" d="M100.391 107L98.8899 106.809L75.7065 21.1723L77.2806 20.7446L99.9545 104.489L142.873 30.6258L144.283 31.4446L100.391 107Z" fill="url(#paint2_linear_1_1075)"/>
<path id="Vector_4" d="M111.31 106.963L66.9722 30.1162L68.3825 29.2974L111.738 104.443L133.865 22.8828L135.449 23.3104L112.802 106.772L111.31 106.963Z" fill="url(#paint3_linear_1_1075)"/>
<path id="Vector_5" d="M123.348 103.943L60.8223 41.0075L61.9778 39.852L123.112 101.386L123.184 16.1045L124.813 16.1136L124.749 103.37L123.348 103.943Z" fill="url(#paint4_linear_1_1075)"/>
<path id="Vector_6" d="M134.303 97.8756L57.6465 53.2103L58.4654 51.8L133.411 95.4644L111.547 12.8941L113.13 12.4756L135.504 96.9566L134.303 97.8756Z" fill="url(#paint5_linear_1_1075)"/>
<path id="Vector_7" d="M143.238 89.2757L57.7104 65.7011L58.1473 64.127L141.782 87.183L99.4824 11.8007L100.911 11L144.166 88.0929L143.238 89.2757Z" fill="url(#paint6_linear_1_1075)"/>
<path id="Vector_8" d="M149.743 78.5383L61.0308 77.9014L61.0399 76.2637L147.796 76.8915L87.426 15.0297L88.5906 13.8833L150.334 77.1553L149.743 78.5383Z" fill="url(#paint7_linear_1_1075)"/>
<path id="Vector_9" d="M104.214 35.72L77.5368 19.7974L76.6997 21.2077L103.013 36.9028L104.214 35.72Z" fill="url(#paint8_linear_1_1075)"/>
<path id="Vector_10" d="M112.402 40.6069L116.906 45.1927L150.935 65.4918L66.9268 87.1647L67.3271 88.7479L153.237 66.5836L153.446 65.0914L112.402 40.6069Z" fill="url(#paint9_linear_1_1075)"/>
<path id="Vector_11" d="M101.948 37.9595L68.3374 28.3877L67.8916 29.9618L100.619 39.2788L101.948 37.9595Z" fill="url(#paint10_linear_1_1075)"/>
<path id="Vector_12" d="M153.355 52.6001L112.857 41.063L115.168 43.4195L151.044 53.6373L77.2358 95.9552L78.0456 97.3746L153.546 54.0923L153.355 52.6001Z" fill="url(#paint11_linear_1_1075)"/>
<path id="Vector_13" d="M149.898 40.1791L111.665 39.8516L113.285 41.4984L147.942 41.7987L87.7358 102.368L88.9005 103.515L150.471 41.5712L149.898 40.1791Z" fill="url(#paint12_linear_1_1075)"/>
<path id="Vector_14" d="M100.136 39.7533L61.4944 39.4258L61.4854 41.0544L98.4987 41.3729L100.136 39.7533Z" fill="url(#paint13_linear_1_1075)"/>
<path id="Vector_15" d="M143.73 29.7261L109.992 38.1423L111.32 39.498L142.247 31.7824L99.3555 105.572L100.775 106.391L144.639 30.9362L143.73 29.7261Z" fill="url(#paint14_linear_1_1075)"/>
<path id="Vector_16" d="M98.9915 40.8804L57.9565 51.1164L58.3569 52.7086L96.7168 43.1368L98.9915 40.8804Z" fill="url(#paint15_linear_1_1075)"/>
<path id="Vector_17" d="M99.3265 40.5532L57.5 63.8549L58.2916 65.2834L94.9865 44.8478L99.3265 40.5532Z" fill="url(#paint16_linear_1_1075)"/>
<path id="Vector_18" d="M134.729 20.8354L107.752 35.8573L108.944 37.0675L133.829 23.2102L111.464 105.708L113.047 106.135L135.912 21.7635L134.729 20.8354Z" fill="url(#paint17_linear_1_1075)"/>
<path id="Vector_19" d="M124.795 102.343H123.166L123.211 17.0249L61.6318 77.7038L60.4854 76.5391L123.457 14.4863L124.849 15.0686L124.795 102.343Z" fill="url(#paint18_linear_1_1075)"/>
<path id="Vector_20" d="M133.802 96.9553L111.82 13.9482L67.8458 88.3752L66.4355 87.5472L111.401 11.437L112.902 11.6463L135.376 96.5367L133.802 96.9553Z" fill="url(#paint19_linear_1_1075)"/>
<path id="Vector_21" d="M133.702 96.382L111.82 13.9482L67.8458 88.3752L66.4355 87.5473L111.401 11.437L112.902 11.6463L135.285 95.9635L133.702 96.382Z" fill="url(#paint20_linear_1_1075)"/>
<path id="Vector_22" d="M98.7632 11.2725L100.901 11.0269L99.8548 12.1548L98.7632 11.2725Z" fill="url(#paint21_linear_1_1075)"/>
<path id="Vector_23" d="M86.3525 14.7572L88.5721 13.8931L88.3902 15.1939L86.3525 14.7572Z" fill="url(#paint22_linear_1_1075)"/>
<path id="Vector_24" d="M75.689 21.1629L77.4992 19.7803L76.9625 21.2903L75.689 21.1629Z" fill="url(#paint23_linear_1_1075)"/>
<path id="Vector_25" d="M66.9644 30.089L68.3197 28.3516L68.2197 29.9616L66.9644 30.089Z" fill="url(#paint24_linear_1_1075)"/>
<path id="Vector_26" d="M60.7944 40.9975L61.5131 39.3965L61.6404 40.7246L60.7944 40.9975Z" fill="url(#paint25_linear_1_1075)"/>
<path id="Vector_27" d="M57.6382 53.1631L57.9384 51.1255L58.375 52.5536L57.6382 53.1631Z" fill="url(#paint26_linear_1_1075)"/>
<path id="Vector_28" d="M57.7092 65.6736L57.5 63.8452L58.346 64.9004L57.7092 65.6736Z" fill="url(#paint27_linear_1_1075)"/>
<path id="Vector_29" d="M60.9954 77.838L60.4951 76.519L61.3138 76.8829L60.9954 77.838Z" fill="url(#paint28_linear_1_1075)"/>
<path id="Vector_30" d="M66.4263 87.5654L67.3359 88.7935L67.4997 87.7656L66.4263 87.5654Z" fill="url(#paint29_linear_1_1075)"/>
</g>
<defs>
<linearGradient id="paint0_linear_1_1075" x1="114.513" y1="24.8488" x2="114.513" y2="137.881" gradientUnits="userSpaceOnUse">
<stop stop-color="#EDEDED"/>
<stop offset="1" stop-color="#EBEBEB" stop-opacity="0"/>
</linearGradient>
<linearGradient id="paint1_linear_1_1075" x1="118.071" y1="24.8476" x2="118.071" y2="137.88" gradientUnits="userSpaceOnUse">
<stop stop-color="#EDEDED"/>
<stop offset="1" stop-color="#EBEBEB" stop-opacity="0"/>
</linearGradient>
<linearGradient id="paint2_linear_1_1075" x1="109.99" y1="24.8481" x2="109.99" y2="137.881" gradientUnits="userSpaceOnUse">
<stop stop-color="#EDEDED"/>
<stop offset="1" stop-color="#EBEBEB" stop-opacity="0"/>
</linearGradient>
<linearGradient id="paint3_linear_1_1075" x1="101.21" y1="24.8481" x2="101.21" y2="137.881" gradientUnits="userSpaceOnUse">
<stop stop-color="#EDEDED"/>
<stop offset="1" stop-color="#EBEBEB" stop-opacity="0"/>
</linearGradient>
<linearGradient id="paint4_linear_1_1075" x1="92.8131" y1="24.8483" x2="92.8131" y2="137.881" gradientUnits="userSpaceOnUse">
<stop stop-color="#EDEDED"/>
<stop offset="1" stop-color="#EBEBEB" stop-opacity="0"/>
</linearGradient>
<linearGradient id="paint5_linear_1_1075" x1="96.5705" y1="24.8498" x2="96.5705" y2="137.882" gradientUnits="userSpaceOnUse">
<stop stop-color="#EDEDED"/>
<stop offset="1" stop-color="#EBEBEB" stop-opacity="0"/>
</linearGradient>
<linearGradient id="paint6_linear_1_1075" x1="100.938" y1="24.8482" x2="100.938" y2="137.881" gradientUnits="userSpaceOnUse">
<stop stop-color="#EDEDED"/>
<stop offset="1" stop-color="#EBEBEB" stop-opacity="0"/>
</linearGradient>
<linearGradient id="paint7_linear_1_1075" x1="105.687" y1="24.8472" x2="105.687" y2="137.88" gradientUnits="userSpaceOnUse">
<stop stop-color="#EDEDED"/>
<stop offset="1" stop-color="#EBEBEB" stop-opacity="0"/>
</linearGradient>
<linearGradient id="paint8_linear_1_1075" x1="90.4569" y1="24.8471" x2="90.4569" y2="137.88" gradientUnits="userSpaceOnUse">
<stop stop-color="#EDEDED"/>
<stop offset="1" stop-color="#EBEBEB" stop-opacity="0"/>
</linearGradient>
<linearGradient id="paint9_linear_1_1075" x1="110.191" y1="24.8481" x2="110.191" y2="137.881" gradientUnits="userSpaceOnUse">
<stop stop-color="#EDEDED"/>
<stop offset="1" stop-color="#EBEBEB" stop-opacity="0"/>
</linearGradient>
<linearGradient id="paint10_linear_1_1075" x1="84.9243" y1="24.8483" x2="84.9243" y2="137.881" gradientUnits="userSpaceOnUse">
<stop stop-color="#EDEDED"/>
<stop offset="1" stop-color="#EBEBEB" stop-opacity="0"/>
</linearGradient>
<linearGradient id="paint11_linear_1_1075" x1="115.386" y1="24.8492" x2="115.386" y2="137.882" gradientUnits="userSpaceOnUse">
<stop stop-color="#EDEDED"/>
<stop offset="1" stop-color="#EBEBEB" stop-opacity="0"/>
</linearGradient>
<linearGradient id="paint12_linear_1_1075" x1="119.099" y1="24.8479" x2="119.099" y2="137.88" gradientUnits="userSpaceOnUse">
<stop stop-color="#EDEDED"/>
<stop offset="1" stop-color="#EBEBEB" stop-opacity="0"/>
</linearGradient>
<linearGradient id="paint13_linear_1_1075" x1="80.8108" y1="24.8497" x2="80.8108" y2="137.882" gradientUnits="userSpaceOnUse">
<stop stop-color="#EDEDED"/>
<stop offset="1" stop-color="#EBEBEB" stop-opacity="0"/>
</linearGradient>
<linearGradient id="paint14_linear_1_1075" x1="121.993" y1="24.8492" x2="121.993" y2="137.882" gradientUnits="userSpaceOnUse">
<stop stop-color="#EDEDED"/>
<stop offset="1" stop-color="#EBEBEB" stop-opacity="0"/>
</linearGradient>
<linearGradient id="paint15_linear_1_1075" x1="78.474" y1="24.8485" x2="78.474" y2="137.881" gradientUnits="userSpaceOnUse">
<stop stop-color="#EDEDED"/>
<stop offset="1" stop-color="#EBEBEB" stop-opacity="0"/>
</linearGradient>
<linearGradient id="paint16_linear_1_1075" x1="78.4087" y1="24.8489" x2="78.4087" y2="137.882" gradientUnits="userSpaceOnUse">
<stop stop-color="#EDEDED"/>
<stop offset="1" stop-color="#EBEBEB" stop-opacity="0"/>
</linearGradient>
<linearGradient id="paint17_linear_1_1075" x1="121.837" y1="24.848" x2="121.837" y2="137.881" gradientUnits="userSpaceOnUse">
<stop stop-color="#EDEDED"/>
<stop offset="1" stop-color="#EBEBEB" stop-opacity="0"/>
</linearGradient>
<linearGradient id="paint18_linear_1_1075" x1="92.6673" y1="24.8497" x2="92.6673" y2="137.882" gradientUnits="userSpaceOnUse">
<stop stop-color="#EDEDED"/>
<stop offset="1" stop-color="#EBEBEB" stop-opacity="0"/>
</linearGradient>
<linearGradient id="paint19_linear_1_1075" x1="100.91" y1="24.8484" x2="100.91" y2="137.881" gradientUnits="userSpaceOnUse">
<stop stop-color="#EDEDED"/>
<stop offset="1" stop-color="#EBEBEB" stop-opacity="0"/>
</linearGradient>
<linearGradient id="paint20_linear_1_1075" x1="100.856" y1="24.8484" x2="100.856" y2="137.881" gradientUnits="userSpaceOnUse">
<stop stop-color="#EDEDED"/>
<stop offset="1" stop-color="#EBEBEB" stop-opacity="0"/>
</linearGradient>
<linearGradient id="paint21_linear_1_1075" x1="99.8275" y1="24.8445" x2="99.8275" y2="137.851" gradientUnits="userSpaceOnUse">
<stop stop-color="#EDEDED"/>
<stop offset="1" stop-color="#EBEBEB" stop-opacity="0"/>
</linearGradient>
<linearGradient id="paint22_linear_1_1075" x1="87.4623" y1="24.8453" x2="87.4623" y2="137.851" gradientUnits="userSpaceOnUse">
<stop stop-color="#EDEDED"/>
<stop offset="1" stop-color="#EBEBEB" stop-opacity="0"/>
</linearGradient>
<linearGradient id="paint23_linear_1_1075" x1="76.5986" y1="24.847" x2="76.5986" y2="137.853" gradientUnits="userSpaceOnUse">
<stop stop-color="#EDEDED"/>
<stop offset="1" stop-color="#EBEBEB" stop-opacity="0"/>
</linearGradient>
<linearGradient id="paint24_linear_1_1075" x1="67.6466" y1="24.8494" x2="67.6466" y2="137.855" gradientUnits="userSpaceOnUse">
<stop stop-color="#EDEDED"/>
<stop offset="1" stop-color="#EBEBEB" stop-opacity="0"/>
</linearGradient>
<linearGradient id="paint25_linear_1_1075" x1="61.2129" y1="24.8511" x2="61.2129" y2="137.857" gradientUnits="userSpaceOnUse">
<stop stop-color="#EDEDED"/>
<stop offset="1" stop-color="#EBEBEB" stop-opacity="0"/>
</linearGradient>
<linearGradient id="paint26_linear_1_1075" x1="58.002" y1="24.8547" x2="58.002" y2="137.861" gradientUnits="userSpaceOnUse">
<stop stop-color="#EDEDED"/>
<stop offset="1" stop-color="#EBEBEB" stop-opacity="0"/>
</linearGradient>
<linearGradient id="paint27_linear_1_1075" x1="57.9275" y1="24.8576" x2="57.9275" y2="137.864" gradientUnits="userSpaceOnUse">
<stop stop-color="#EDEDED"/>
<stop offset="1" stop-color="#EBEBEB" stop-opacity="0"/>
</linearGradient>
<linearGradient id="paint28_linear_1_1075" x1="60.9045" y1="24.86" x2="60.9045" y2="137.866" gradientUnits="userSpaceOnUse">
<stop stop-color="#EDEDED"/>
<stop offset="1" stop-color="#EBEBEB" stop-opacity="0"/>
</linearGradient>
<linearGradient id="paint29_linear_1_1075" x1="66.963" y1="24.863" x2="66.963" y2="137.869" gradientUnits="userSpaceOnUse">
<stop stop-color="#EDEDED"/>
<stop offset="1" stop-color="#EBEBEB" stop-opacity="0"/>
</linearGradient>
</defs>
</svg>
