<svg width="211" height="118" viewBox="0 0 211 118" fill="none" xmlns="http://www.w3.org/2000/svg">
<g id="trade-icon-5.svg">
<path id="Vector" d="M82.8335 30.5327L89.2364 37.1233C91.0421 38.9879 93.2041 40.4705 95.5941 41.4831C97.9841 42.4956 100.553 43.0173 103.149 43.0173C105.744 43.0173 108.314 42.4956 110.704 41.4831C113.094 40.4705 115.256 38.9879 117.061 37.1233L133.543 20.0589L123.079 10L109.245 23.5172C107.566 25.1604 105.305 26.0724 102.956 26.0539C100.606 26.0354 98.3595 25.0879 96.7064 23.4184L93.0208 19.6537L82.8335 30.5327Z" fill="url(#paint0_linear_1_1116)"/>
<path id="Vector_2" d="M132.159 39.3564L125.569 45.7494C123.705 47.5567 122.223 49.7198 121.211 52.1105C120.2 54.5012 119.678 57.0708 119.678 59.6668C119.678 62.2628 120.2 64.8324 121.211 67.2231C122.223 69.6138 123.705 71.777 125.569 73.5842L142.584 90.0361L152.643 79.5622L139.125 65.7288C137.482 64.0496 136.57 61.7883 136.589 59.4389C136.607 57.0895 137.555 54.8429 139.224 53.1898L143.028 49.524L132.159 39.3564Z" fill="url(#paint1_linear_1_1116)"/>
<path id="Vector_3" d="M124.096 87.428L117.693 80.8374C115.888 78.9728 113.725 77.4901 111.335 76.4776C108.946 75.4651 106.376 74.9434 103.781 74.9434C101.185 74.9434 98.616 75.4651 96.226 76.4776C93.8361 77.4901 91.674 78.9728 89.8683 80.8374L73.377 97.9414L83.8508 108L97.6842 94.483C99.3633 92.8398 101.625 91.9278 103.974 91.9463C106.323 91.9648 108.57 92.9123 110.223 94.5818L113.938 98.3465L124.096 87.428Z" fill="url(#paint2_linear_1_1116)"/>
<path id="Vector_4" d="M75.6201 80.2146L82.2107 73.8117C84.0753 72.0061 85.5579 69.844 86.5705 67.454C87.583 65.064 88.1047 62.4949 88.1047 59.8993C88.1047 57.3037 87.583 54.7346 86.5705 52.3446C85.5579 49.9546 84.0753 47.7925 82.2107 45.9869L65.1463 29.5054L55.0874 39.9693L68.6046 53.8027C70.2418 55.4811 71.15 57.7381 71.1315 60.0827C71.113 62.4272 70.1693 64.6697 68.5058 66.322L64.7411 70.0273L75.6201 80.2146Z" fill="url(#paint3_linear_1_1116)"/>
<path id="Vector_5" d="M115.134 70.6981C106.702 65.3623 98.7613 65.3623 91.311 70.6981C97.3714 62.7538 97.3714 54.8127 91.311 46.875C99.2158 53.0605 107.157 53.0605 115.134 46.875C109.548 54.8193 109.548 62.7603 115.134 70.6981Z" fill="url(#paint4_linear_1_1116)"/>
<path id="Vector_6" d="M82.8335 30.5327L89.2364 37.1233C91.0421 38.9879 93.2041 40.4705 95.5941 41.4831C97.9841 42.4956 100.553 43.0173 103.149 43.0173C105.744 43.0173 108.314 42.4956 110.704 41.4831C113.094 40.4705 115.256 38.9879 117.061 37.1233L133.543 20.0589L123.079 10L109.245 23.5172C107.566 25.1604 105.305 26.0724 102.956 26.0539C100.606 26.0354 98.3595 25.0879 96.7064 23.4184L93.0208 19.6537L82.8335 30.5327Z" fill="url(#paint5_linear_1_1116)"/>
<path id="Vector_7" d="M132.159 39.3564L125.569 45.7494C123.705 47.5567 122.223 49.7198 121.211 52.1105C120.2 54.5012 119.678 57.0708 119.678 59.6668C119.678 62.2628 120.2 64.8324 121.211 67.2231C122.223 69.6138 123.705 71.777 125.569 73.5842L142.584 90.0361L152.643 79.5622L139.125 65.7288C137.482 64.0496 136.57 61.7883 136.589 59.4389C136.607 57.0895 137.555 54.8429 139.224 53.1898L143.028 49.524L132.159 39.3564Z" fill="url(#paint6_linear_1_1116)"/>
<path id="Vector_8" d="M124.096 87.428L117.693 80.8374C115.888 78.9728 113.725 77.4901 111.335 76.4776C108.946 75.4651 106.376 74.9434 103.781 74.9434C101.185 74.9434 98.616 75.4651 96.226 76.4776C93.8361 77.4901 91.674 78.9728 89.8683 80.8374L73.377 97.9414L83.8508 108L97.6842 94.483C99.3633 92.8398 101.625 91.9278 103.974 91.9463C106.323 91.9648 108.57 92.9123 110.223 94.5818L113.938 98.3465L124.096 87.428Z" fill="url(#paint7_linear_1_1116)"/>
<path id="Vector_9" d="M75.6201 80.2146L82.2107 73.8117C84.0753 72.0061 85.5579 69.844 86.5705 67.454C87.583 65.064 88.1047 62.4949 88.1047 59.8993C88.1047 57.3037 87.583 54.7346 86.5705 52.3446C85.5579 49.9546 84.0753 47.7925 82.2107 45.9869L65.1463 29.5054L55.0874 39.9693L68.6046 53.8027C70.2418 55.4811 71.15 57.7381 71.1315 60.0827C71.113 62.4272 70.1693 64.6697 68.5058 66.322L64.7411 70.0273L75.6201 80.2146Z" fill="url(#paint8_linear_1_1116)"/>
<path id="Vector_10" d="M115.134 70.6981C106.702 65.3623 98.7613 65.3623 91.311 70.6981C97.3714 62.7538 97.3714 54.8127 91.311 46.875C99.2158 53.0605 107.157 53.0605 115.134 46.875C109.548 54.8193 109.548 62.7603 115.134 70.6981Z" fill="url(#paint9_linear_1_1116)"/>
</g>
<defs>
<linearGradient id="paint0_linear_1_1116" x1="105.659" y1="15.7112" x2="134.699" y2="125.617" gradientUnits="userSpaceOnUse">
<stop stop-color="#EDEDED"/>
<stop offset="1" stop-color="#EBEBEB" stop-opacity="0"/>
</linearGradient>
<linearGradient id="paint1_linear_1_1116" x1="120.519" y1="11.7786" x2="149.57" y2="121.695" gradientUnits="userSpaceOnUse">
<stop stop-color="#EDEDED"/>
<stop offset="1" stop-color="#EBEBEB" stop-opacity="0"/>
</linearGradient>
<linearGradient id="paint2_linear_1_1116" x1="80.1751" y1="22.4407" x2="109.225" y2="132.357" gradientUnits="userSpaceOnUse">
<stop stop-color="#EDEDED"/>
<stop offset="1" stop-color="#EBEBEB" stop-opacity="0"/>
</linearGradient>
<linearGradient id="paint3_linear_1_1116" x1="65.6699" y1="26.2743" x2="94.7201" y2="136.19" gradientUnits="userSpaceOnUse">
<stop stop-color="#EDEDED"/>
<stop offset="1" stop-color="#EBEBEB" stop-opacity="0"/>
</linearGradient>
<linearGradient id="paint4_linear_1_1116" x1="92.9513" y1="19.9493" x2="122.001" y2="129.856" gradientUnits="userSpaceOnUse">
<stop stop-color="#EDEDED"/>
<stop offset="1" stop-color="#EBEBEB" stop-opacity="0"/>
</linearGradient>
<linearGradient id="paint5_linear_1_1116" x1="105.659" y1="15.7112" x2="134.699" y2="125.617" gradientUnits="userSpaceOnUse">
<stop stop-color="#EDEDED"/>
<stop offset="1" stop-color="#EBEBEB" stop-opacity="0"/>
</linearGradient>
<linearGradient id="paint6_linear_1_1116" x1="120.519" y1="11.7786" x2="149.57" y2="121.695" gradientUnits="userSpaceOnUse">
<stop stop-color="#EDEDED"/>
<stop offset="1" stop-color="#EBEBEB" stop-opacity="0"/>
</linearGradient>
<linearGradient id="paint7_linear_1_1116" x1="80.1751" y1="22.4407" x2="109.225" y2="132.357" gradientUnits="userSpaceOnUse">
<stop stop-color="#EDEDED"/>
<stop offset="1" stop-color="#EBEBEB" stop-opacity="0"/>
</linearGradient>
<linearGradient id="paint8_linear_1_1116" x1="65.6699" y1="26.2743" x2="94.7201" y2="136.19" gradientUnits="userSpaceOnUse">
<stop stop-color="#EDEDED"/>
<stop offset="1" stop-color="#EBEBEB" stop-opacity="0"/>
</linearGradient>
<linearGradient id="paint9_linear_1_1116" x1="92.9513" y1="19.9493" x2="122.001" y2="129.856" gradientUnits="userSpaceOnUse">
<stop stop-color="#EDEDED"/>
<stop offset="1" stop-color="#EBEBEB" stop-opacity="0"/>
</linearGradient>
</defs>
</svg>
