<svg width="211" height="118" viewBox="0 0 211 118" fill="none" xmlns="http://www.w3.org/2000/svg">
<g id="trade-icon-3.svg">
<path id="Vector" d="M45.3047 19L99.3999 38.7143C100.924 39.2857 101.971 40.7143 101.971 42.4286V54.4286L52.1618 36.4286C50.7333 35.9524 49.6856 34.8095 49.3047 33.2857L45.3047 19Z" fill="url(#paint0_linear_1_1188)"/>
<path id="Vector_2" d="M58.7329 46.333L105.495 63.3806V78.1425L65.5901 63.4759C64.2567 62.9997 63.2091 61.8568 62.8281 60.5235L58.7329 46.333Z" fill="url(#paint1_linear_1_1188)"/>
<path id="Vector_3" d="M72.1611 73.4756L76.1611 87.8565C76.5421 89.0946 77.4945 90.1422 78.7326 90.6184L101.875 98.9994V86.9042C101.875 85.1899 100.828 83.7613 99.2087 83.1899L72.1611 73.4756Z" fill="url(#paint2_linear_1_1188)"/>
<path id="Vector_4" d="M165.686 19L111.59 38.7143C110.067 39.2857 109.019 40.7143 109.019 42.4286V54.4286L158.829 36.4286C160.257 35.9524 161.305 34.8095 161.686 33.2857L165.686 19Z" fill="url(#paint3_linear_1_1188)"/>
<path id="Vector_5" d="M152.257 46.333L105.495 63.3806V78.1425L145.4 63.4759C146.733 62.9997 147.781 61.8568 148.162 60.5235L152.257 46.333Z" fill="url(#paint4_linear_1_1188)"/>
<path id="Vector_6" d="M138.733 73.4756L134.733 87.8565C134.352 89.0946 133.4 90.1422 132.162 90.6184L109.019 98.9994V86.9042C109.019 85.1899 110.067 83.7613 111.686 83.1899L138.733 73.4756Z" fill="url(#paint5_linear_1_1188)"/>
<path id="Vector_7" d="M45.3047 19L99.3999 38.7143C100.924 39.2857 101.971 40.7143 101.971 42.4286V54.4286L52.1618 36.4286C50.7333 35.9524 49.6856 34.8095 49.3047 33.2857L45.3047 19Z" fill="url(#paint6_linear_1_1188)"/>
<path id="Vector_8" d="M58.7329 46.333L105.495 63.3806V78.1425L65.5901 63.4759C64.2567 62.9997 63.2091 61.8568 62.8281 60.5235L58.7329 46.333Z" fill="url(#paint7_linear_1_1188)"/>
<path id="Vector_9" d="M72.1611 73.4756L76.1611 87.8565C76.5421 89.0946 77.4945 90.1422 78.7326 90.6184L101.875 98.9994V86.9042C101.875 85.1899 100.828 83.7613 99.2087 83.1899L72.1611 73.4756Z" fill="url(#paint8_linear_1_1188)"/>
<path id="Vector_10" d="M165.686 19L111.59 38.7143C110.067 39.2857 109.019 40.7143 109.019 42.4286V54.4286L158.829 36.4286C160.257 35.9524 161.305 34.8095 161.686 33.2857L165.686 19Z" fill="url(#paint9_linear_1_1188)"/>
<path id="Vector_11" d="M152.257 46.333L105.495 63.3806V78.1425L145.4 63.4759C146.733 62.9997 147.781 61.8568 148.162 60.5235L152.257 46.333Z" fill="url(#paint10_linear_1_1188)"/>
<path id="Vector_12" d="M138.733 73.4756L134.733 87.8565C134.352 89.0946 133.4 90.1422 132.162 90.6184L109.019 98.9994V86.9042C109.019 85.1899 110.067 83.7613 111.686 83.1899L138.733 73.4756Z" fill="url(#paint11_linear_1_1188)"/>
</g>
<defs>
<linearGradient id="paint0_linear_1_1188" x1="68.6009" y1="12.4939" x2="81.8864" y2="60.0649" gradientUnits="userSpaceOnUse">
<stop stop-color="#EDEDED"/>
<stop offset="0.9984" stop-color="#EBEBEB" stop-opacity="0"/>
</linearGradient>
<linearGradient id="paint1_linear_1_1188" x1="78.2294" y1="40.8985" x2="89.8541" y2="82.5225" gradientUnits="userSpaceOnUse">
<stop stop-color="#EDEDED"/>
<stop offset="0.9984" stop-color="#EBEBEB" stop-opacity="0"/>
</linearGradient>
<linearGradient id="paint2_linear_1_1188" x1="84.3128" y1="70.133" x2="93.0685" y2="101.484" gradientUnits="userSpaceOnUse">
<stop stop-color="#EDEDED"/>
<stop offset="0.9984" stop-color="#EBEBEB" stop-opacity="0"/>
</linearGradient>
<linearGradient id="paint3_linear_1_1188" x1="142.378" y1="12.4939" x2="129.092" y2="60.0649" gradientUnits="userSpaceOnUse">
<stop stop-color="#EDEDED"/>
<stop offset="0.9984" stop-color="#EBEBEB" stop-opacity="0"/>
</linearGradient>
<linearGradient id="paint4_linear_1_1188" x1="132.749" y1="40.8985" x2="121.124" y2="82.5225" gradientUnits="userSpaceOnUse">
<stop stop-color="#EDEDED"/>
<stop offset="0.9984" stop-color="#EBEBEB" stop-opacity="0"/>
</linearGradient>
<linearGradient id="paint5_linear_1_1188" x1="126.665" y1="70.133" x2="117.91" y2="101.484" gradientUnits="userSpaceOnUse">
<stop stop-color="#EDEDED"/>
<stop offset="0.9984" stop-color="#EBEBEB" stop-opacity="0"/>
</linearGradient>
<linearGradient id="paint6_linear_1_1188" x1="68.6009" y1="12.4939" x2="81.8864" y2="60.0649" gradientUnits="userSpaceOnUse">
<stop stop-color="#EDEDED"/>
<stop offset="0.9984" stop-color="#EBEBEB" stop-opacity="0"/>
</linearGradient>
<linearGradient id="paint7_linear_1_1188" x1="78.2294" y1="40.8985" x2="89.8541" y2="82.5225" gradientUnits="userSpaceOnUse">
<stop stop-color="#EDEDED"/>
<stop offset="0.9984" stop-color="#EBEBEB" stop-opacity="0"/>
</linearGradient>
<linearGradient id="paint8_linear_1_1188" x1="84.3128" y1="70.133" x2="93.0685" y2="101.484" gradientUnits="userSpaceOnUse">
<stop stop-color="#EDEDED"/>
<stop offset="0.9984" stop-color="#EBEBEB" stop-opacity="0"/>
</linearGradient>
<linearGradient id="paint9_linear_1_1188" x1="142.378" y1="12.4939" x2="129.092" y2="60.0649" gradientUnits="userSpaceOnUse">
<stop stop-color="#EDEDED"/>
<stop offset="0.9984" stop-color="#EBEBEB" stop-opacity="0"/>
</linearGradient>
<linearGradient id="paint10_linear_1_1188" x1="132.749" y1="40.8985" x2="121.124" y2="82.5225" gradientUnits="userSpaceOnUse">
<stop stop-color="#EDEDED"/>
<stop offset="0.9984" stop-color="#EBEBEB" stop-opacity="0"/>
</linearGradient>
<linearGradient id="paint11_linear_1_1188" x1="126.665" y1="70.133" x2="117.91" y2="101.484" gradientUnits="userSpaceOnUse">
<stop stop-color="#EDEDED"/>
<stop offset="0.9984" stop-color="#EBEBEB" stop-opacity="0"/>
</linearGradient>
</defs>
</svg>
