<svg width="211" height="118" viewBox="0 0 211 118" fill="none" xmlns="http://www.w3.org/2000/svg">
<g id="trade-icon-6.svg" clip-path="url(#clip0_1_1137)">
<path id="Vector" d="M58.375 27.58L56.5698 25.7747C56.5698 25.7747 32.5 51.7501 32.5 64.3867C32.5 77.0234 55.1657 73.0117 81.9434 63.2835C114.438 51.5495 193.467 14.4419 193.467 14.4419L210.416 0C210.416 0 139.009 35.9041 110.025 47.939C82.4448 59.4725 41.6265 76.7225 36.2108 65.0888C35.7093 63.8853 35.609 62.5815 35.9099 61.378C36.8125 57.6672 40.7238 47.6382 58.375 27.58Z" fill="white"/>
<path id="Vector_2" opacity="0.4" d="M65.295 65.0889C70.4098 57.3665 81.843 48.1397 81.843 48.1397L79.0349 45.833C64.6933 58.2691 61.0828 64.3868 60.1802 66.4929C61.7848 66.0918 63.4898 65.5903 65.295 65.0889Z" fill="white"/>
<path id="Vector_3" opacity="0.8" d="M38.0155 67.2953C38.8178 67.8971 39.921 68.2982 41.1245 68.5991C40.7234 65.8913 41.8266 56.5642 64.0911 32.7953L61.7844 30.4886C61.6841 30.3883 37.7146 55.461 38.0155 67.2953Z" fill="white"/>
<path id="Vector_4" opacity="0.65" d="M43.7322 68.8998C44.8354 69.0001 45.9386 69.0001 47.2423 68.8998C47.0418 66.9943 48.4458 59.5727 69.9081 37.609L67.4008 35.5029C67.4008 35.5029 43.0301 59.8736 43.7322 68.8998Z" fill="white"/>
<path id="Vector_5" opacity="0.55" d="M55.0652 67.6965C55.667 65.5904 58.2745 58.8709 75.9257 43.025L73.3182 40.7183C73.3182 40.7183 52.3574 60.4756 50.853 68.4988C52.0565 68.2982 53.8618 67.8971 55.0652 67.6965Z" fill="white"/>
<path id="Vector_6" d="M41.2251 75.5193C41.2251 75.5193 73.2179 77.7256 157.362 43.7271L146.53 52.9538C146.631 53.0541 72.0144 81.7373 41.2251 75.5193Z" fill="url(#paint0_linear_1_1137)"/>
<path id="Vector_7" d="M49.3486 80.4334C49.3486 80.4334 97.8894 78.929 126.873 69.4014L119.853 75.6194C119.753 75.5191 69.6074 86.1499 49.3486 80.4334Z" fill="url(#paint1_linear_1_1137)"/>
<path id="Vector_8" d="M55.667 85.5482C55.667 85.5482 97.1874 87.7546 107.317 85.3477L102.202 89.961C102.302 89.961 61.885 90.1616 55.667 85.5482Z" fill="url(#paint2_linear_1_1137)"/>
<path id="Vector_9" d="M65.1948 91.8667C65.1948 91.8667 94.9812 94.9757 96.285 94.4743L92.2734 97.9844C92.3736 98.0847 78.9347 97.8842 65.1948 91.8667Z" fill="url(#paint3_linear_1_1137)"/>
</g>
<defs>
<linearGradient id="paint0_linear_1_1137" x1="118.743" y1="69.2668" x2="54.4771" y2="37.472" gradientUnits="userSpaceOnUse">
<stop stop-color="#EDEDED"/>
<stop offset="0.9984" stop-color="#EBEBEB" stop-opacity="0"/>
</linearGradient>
<linearGradient id="paint1_linear_1_1137" x1="110.472" y1="85.9854" x2="46.2057" y2="54.1907" gradientUnits="userSpaceOnUse">
<stop stop-color="#EDEDED"/>
<stop offset="0.9984" stop-color="#EBEBEB" stop-opacity="0"/>
</linearGradient>
<linearGradient id="paint2_linear_1_1137" x1="105.004" y1="97.0376" x2="40.7378" y2="65.2428" gradientUnits="userSpaceOnUse">
<stop stop-color="#EDEDED"/>
<stop offset="0.9984" stop-color="#EBEBEB" stop-opacity="0"/>
</linearGradient>
<linearGradient id="paint3_linear_1_1137" x1="101.753" y1="103.608" x2="37.4874" y2="71.8134" gradientUnits="userSpaceOnUse">
<stop stop-color="#EDEDED"/>
<stop offset="0.9984" stop-color="#EBEBEB" stop-opacity="0"/>
</linearGradient>
<clipPath id="clip0_1_1137">
<rect width="210" height="118" fill="white" transform="translate(0.5)"/>
</clipPath>
</defs>
</svg>
