<svg width="211" height="118" viewBox="0 0 211 118" fill="none" xmlns="http://www.w3.org/2000/svg">
<g id="trade-icon-1.svg">
<path id="Vector" d="M74.1504 25.2413C76.94 22.356 80.4735 20.2988 84.3598 19.2973C88.2462 18.2957 92.3339 18.389 96.1705 19.5667C109.634 23.6656 113.573 36.3012 113.573 42.3747V81.8075C113.573 81.8075 119.667 82.6751 125.541 77.0504C127.421 75.0977 128.809 72.7252 129.59 70.1292C130.527 67.2559 130.976 64.2454 130.916 61.2235L130.667 40.1308C130.64 35.8544 129.868 31.6154 128.383 27.6049C125.86 20.8333 120.534 12.476 109.454 11.2793C89.7679 9.14502 78.2792 19.9756 74.1504 25.2413Z" fill="url(#paint0_linear_1_1156)"/>
<path id="Vector_2" d="M137.977 91.5414C137.977 91.5414 128.124 102.512 114.67 98.4326C101.217 94.3537 97.2177 81.6882 97.2177 75.6147V36.2218C97.2177 36.2218 91.1243 35.3641 85.2503 40.9788C83.3609 42.9479 81.9722 45.3421 81.2013 47.9599C80.2644 50.8336 79.8127 53.8434 79.8649 56.8656L80.1342 77.9084C80.1614 82.1815 80.9342 86.4171 82.418 90.4244C84.9511 97.1561 90.2766 105.523 101.366 106.72C121.023 108.854 132.99 98.303 137.977 91.5414Z" fill="url(#paint1_linear_1_1156)"/>
<path id="Vector_3" d="M97.0879 75.6143C97.0879 81.6878 101.077 94.3234 114.52 98.4323C127.964 102.541 137.827 91.541 137.827 91.541L137.538 91.92C143.938 83.4543 147.53 73.1987 147.81 62.5897C147.81 19.2775 119.866 11.3889 106.173 11C107.24 11 108.337 11.1097 109.454 11.2393C120.534 12.4361 125.86 20.7934 128.403 27.5251C129.887 31.5356 130.66 35.7746 130.687 40.051L130.936 61.1437C130.996 64.1656 130.547 67.1761 129.609 70.0494C128.829 72.6454 127.441 75.0179 125.56 76.9706C119.676 82.5953 113.593 81.7277 113.593 81.7277C101.257 81.5282 97.4369 69.0721 97.4369 69.0721H97.1378L97.0879 75.6143Z" fill="url(#paint2_linear_1_1156)"/>
<path id="Vector_4" d="M85.1205 40.9787C91.0045 35.364 97.088 36.2216 97.088 36.2216C109.664 36.2216 113.543 48.8872 113.543 48.8872V42.3749C113.543 36.3014 109.554 23.6658 96.1406 19.5669C92.3154 18.3842 88.2379 18.2807 84.3577 19.2679C80.4774 20.2551 76.9452 22.2947 74.1503 25.1617C67.3477 33.8087 63.5021 44.412 63.1802 55.4095C63.1802 94.7724 86.2873 104.875 100.778 106.65C90.0172 105.274 84.8213 97.0662 82.2982 90.4243C80.8145 86.4169 80.0416 82.1814 80.0144 77.9083L79.7551 56.8156C79.7147 53.7878 80.1798 50.7745 81.1314 47.8999C81.8937 45.3092 83.261 42.9369 85.1205 40.9787Z" fill="url(#paint3_linear_1_1156)"/>
</g>
<defs>
<linearGradient id="paint0_linear_1_1156" x1="127.665" y1="46.4137" x2="76.7932" y2="46.4137" gradientUnits="userSpaceOnUse">
<stop stop-color="#EDEDED"/>
<stop offset="1" stop-color="#EBEBEB" stop-opacity="0"/>
</linearGradient>
<linearGradient id="paint1_linear_1_1156" x1="79.8549" y1="71.5856" x2="137.927" y2="71.5856" gradientUnits="userSpaceOnUse">
<stop stop-color="#EDEDED"/>
<stop offset="1" stop-color="#EBEBEB" stop-opacity="0"/>
</linearGradient>
<linearGradient id="paint2_linear_1_1156" x1="122.469" y1="95.0714" x2="122.469" y2="9.92293" gradientUnits="userSpaceOnUse">
<stop stop-color="#EDEDED"/>
<stop offset="1" stop-color="#EBEBEB" stop-opacity="0"/>
</linearGradient>
<linearGradient id="paint3_linear_1_1156" x1="88.0725" y1="32.6513" x2="89.369" y2="104.197" gradientUnits="userSpaceOnUse">
<stop stop-color="#EDEDED"/>
<stop offset="1" stop-color="#EBEBEB" stop-opacity="0"/>
</linearGradient>
</defs>
</svg>
