<svg width="211" height="118" viewBox="0 0 211 118" fill="none" xmlns="http://www.w3.org/2000/svg">
<g id="trade-icon-2.svg">
<path id="Vector" d="M26.4121 91.5546V47.0001C26.4125 46.8577 26.3719 46.7182 26.2953 46.5982C26.2186 46.4782 26.109 46.3827 25.9796 46.3232C25.8502 46.2638 25.7065 46.2427 25.5655 46.2627C25.4244 46.2826 25.2922 46.3427 25.1843 46.4358L18.4319 52.3368C17.7352 52.9407 16.8801 53.3322 15.9677 53.465C15.0554 53.5978 14.1241 53.4662 13.2842 53.0859C12.4444 52.7055 11.7312 52.0924 11.2291 51.3191C10.7271 50.5458 10.4573 49.6448 10.4517 48.7229V37.6833C10.4511 36.9936 10.5994 36.3119 10.8865 35.6848C11.1736 35.0577 11.5926 34.4999 12.115 34.0496L25.0457 22.812C25.9225 22.0521 27.0439 21.6337 28.2041 21.6338H38.8081C40.0843 21.6338 41.3082 22.1408 42.2106 23.0432C43.113 23.9456 43.62 25.1695 43.62 26.4457V91.5546C43.6213 92.1873 43.4978 92.8141 43.2565 93.399C43.0153 93.984 42.6611 94.5156 42.2141 94.9635C41.7672 95.4114 41.2363 95.7667 40.6518 96.0091C40.0674 96.2516 39.4408 96.3764 38.8081 96.3764H31.2437C30.6093 96.379 29.9807 96.2561 29.3939 96.0148C28.8072 95.7736 28.274 95.4187 27.8249 94.9705C27.3759 94.5224 27.0198 93.9899 26.7774 93.4036C26.5349 92.8174 26.4107 92.189 26.4121 91.5546Z" fill="url(#paint0_linear_1_1170)"/>
<path id="Vector_2" d="M71.2242 97C58.838 97 47.1846 89.0792 47.1846 73.703V44.3069C47.1846 28.9208 58.838 21 71.2242 21C83.6103 21 95.2638 28.9208 95.2638 44.3069V73.703C95.2638 89.1287 83.6103 97 71.2242 97ZM78.046 44.3069C78.046 39.0594 74.8974 36.5347 71.2242 36.5347C67.5509 36.5347 64.4024 39.0594 64.4024 44.3069V73.802C64.4024 79.0495 67.5509 81.4653 71.2242 81.4653C74.8974 81.4653 78.046 79.0495 78.046 73.802V44.3069Z" fill="url(#paint1_linear_1_1170)"/>
<path id="Vector_3" d="M122.412 97C110.026 97 98.3726 89.0792 98.3726 73.703V44.3069C98.3726 28.9208 110.026 21 122.412 21C134.798 21 146.452 28.9208 146.452 44.3069V73.703C146.452 89.1287 134.798 97 122.412 97ZM129.264 44.3069C129.264 39.0594 126.115 36.5347 122.442 36.5347C118.769 36.5347 115.62 39.0594 115.62 44.3069V73.802C115.62 79.0495 118.769 81.4653 122.442 81.4653C126.115 81.4653 129.264 79.0495 129.264 73.802V44.3069Z" fill="url(#paint2_linear_1_1170)"/>
<path id="Vector_4" d="M189.224 70.5046L198.244 61.4848C199.045 60.6849 199.68 59.7349 200.113 58.6892C200.547 57.6436 200.77 56.5227 200.77 55.3908C200.77 54.2588 200.547 53.138 200.113 52.0923C199.68 51.0467 199.045 50.0967 198.244 49.2967C197.445 48.4962 196.495 47.8611 195.451 47.4278C194.406 46.9945 193.286 46.7715 192.155 46.7715C191.024 46.7715 189.904 46.9945 188.859 47.4278C187.814 47.8611 186.865 48.4962 186.066 49.2967L177.036 58.3165L168.016 49.2967C167.216 48.4964 166.266 47.8616 165.22 47.4285C164.174 46.9954 163.054 46.7725 161.922 46.7725C160.79 46.7725 159.67 46.9954 158.624 47.4285C157.578 47.8616 156.628 48.4964 155.828 49.2967C155.028 50.097 154.393 51.0471 153.96 52.0927C153.527 53.1383 153.304 54.259 153.304 55.3908C153.304 56.5226 153.527 57.6432 153.96 58.6889C154.393 59.7345 155.028 60.6846 155.828 61.4848L164.907 70.5046L155.877 79.5244C155.077 80.3244 154.441 81.2744 154.008 82.3201C153.574 83.3657 153.351 84.4866 153.351 85.6185C153.351 86.7504 153.574 87.8713 154.008 88.9169C154.441 89.9626 155.077 90.9126 155.877 91.7126C156.677 92.5134 157.627 93.1487 158.673 93.5821C159.719 94.0155 160.84 94.2386 161.972 94.2386C163.103 94.2386 164.224 94.0155 165.27 93.5821C166.316 93.1487 167.266 92.5134 168.066 91.7126L177.085 82.6928L186.115 91.7126C186.914 92.5131 187.863 93.1481 188.908 93.5815C189.953 94.0148 191.073 94.2378 192.204 94.2378C193.335 94.2378 194.455 94.0148 195.5 93.5815C196.545 93.1481 197.494 92.5131 198.293 91.7126C199.094 90.9126 199.729 89.9626 200.163 88.9169C200.596 87.8713 200.819 86.7504 200.819 85.6185C200.819 84.4866 200.596 83.3657 200.163 82.3201C199.729 81.2744 199.094 80.3244 198.293 79.5244L189.224 70.5046Z" fill="url(#paint3_linear_1_1170)"/>
<path id="Vector_5" d="M26.4121 91.5546V47.0001C26.4125 46.8577 26.3719 46.7182 26.2953 46.5982C26.2186 46.4782 26.109 46.3827 25.9796 46.3232C25.8502 46.2638 25.7065 46.2427 25.5655 46.2627C25.4244 46.2826 25.2922 46.3427 25.1843 46.4358L18.4319 52.3368C17.7352 52.9407 16.8801 53.3322 15.9677 53.465C15.0554 53.5978 14.1241 53.4662 13.2842 53.0859C12.4444 52.7055 11.7312 52.0924 11.2291 51.3191C10.7271 50.5458 10.4573 49.6448 10.4517 48.7229V37.6833C10.4511 36.9936 10.5994 36.3119 10.8865 35.6848C11.1736 35.0577 11.5926 34.4999 12.115 34.0496L25.0457 22.812C25.9225 22.0521 27.0439 21.6337 28.2041 21.6338H38.8081C40.0843 21.6338 41.3082 22.1408 42.2106 23.0432C43.113 23.9456 43.62 25.1695 43.62 26.4457V91.5546C43.6213 92.1873 43.4978 92.8141 43.2565 93.399C43.0153 93.984 42.6611 94.5156 42.2141 94.9635C41.7672 95.4114 41.2363 95.7667 40.6518 96.0091C40.0674 96.2516 39.4408 96.3764 38.8081 96.3764H31.2437C30.6093 96.379 29.9807 96.2561 29.3939 96.0148C28.8072 95.7736 28.274 95.4187 27.8249 94.9705C27.3759 94.5224 27.0198 93.9899 26.7774 93.4036C26.5349 92.8174 26.4107 92.189 26.4121 91.5546Z" fill="url(#paint4_linear_1_1170)"/>
<path id="Vector_6" d="M71.2242 97C58.838 97 47.1846 89.0792 47.1846 73.703V44.3069C47.1846 28.9208 58.838 21 71.2242 21C83.6103 21 95.2638 28.9208 95.2638 44.3069V73.703C95.2638 89.1287 83.6103 97 71.2242 97ZM78.046 44.3069C78.046 39.0594 74.8974 36.5347 71.2242 36.5347C67.5509 36.5347 64.4024 39.0594 64.4024 44.3069V73.802C64.4024 79.0495 67.5509 81.4653 71.2242 81.4653C74.8974 81.4653 78.046 79.0495 78.046 73.802V44.3069Z" fill="url(#paint5_linear_1_1170)"/>
<path id="Vector_7" d="M122.412 97C110.026 97 98.3726 89.0792 98.3726 73.703V44.3069C98.3726 28.9208 110.026 21 122.412 21C134.798 21 146.452 28.9208 146.452 44.3069V73.703C146.452 89.1287 134.798 97 122.412 97ZM129.264 44.3069C129.264 39.0594 126.115 36.5347 122.442 36.5347C118.769 36.5347 115.62 39.0594 115.62 44.3069V73.802C115.62 79.0495 118.769 81.4653 122.442 81.4653C126.115 81.4653 129.264 79.0495 129.264 73.802V44.3069Z" fill="url(#paint6_linear_1_1170)"/>
<path id="Vector_8" d="M189.224 70.5046L198.244 61.4848C199.045 60.6849 199.68 59.7349 200.113 58.6892C200.547 57.6436 200.77 56.5227 200.77 55.3908C200.77 54.2588 200.547 53.138 200.113 52.0923C199.68 51.0467 199.045 50.0967 198.244 49.2967C197.445 48.4962 196.495 47.8611 195.451 47.4278C194.406 46.9945 193.286 46.7715 192.155 46.7715C191.024 46.7715 189.904 46.9945 188.859 47.4278C187.814 47.8611 186.865 48.4962 186.066 49.2967L177.036 58.3165L168.016 49.2967C167.216 48.4964 166.266 47.8616 165.22 47.4285C164.174 46.9954 163.054 46.7725 161.922 46.7725C160.79 46.7725 159.67 46.9954 158.624 47.4285C157.578 47.8616 156.628 48.4964 155.828 49.2967C155.028 50.097 154.393 51.0471 153.96 52.0927C153.527 53.1383 153.304 54.259 153.304 55.3908C153.304 56.5226 153.527 57.6432 153.96 58.6889C154.393 59.7345 155.028 60.6846 155.828 61.4848L164.907 70.5046L155.877 79.5244C155.077 80.3244 154.441 81.2744 154.008 82.3201C153.574 83.3657 153.351 84.4866 153.351 85.6185C153.351 86.7504 153.574 87.8713 154.008 88.9169C154.441 89.9626 155.077 90.9126 155.877 91.7126C156.677 92.5134 157.627 93.1487 158.673 93.5821C159.719 94.0155 160.84 94.2386 161.972 94.2386C163.103 94.2386 164.224 94.0155 165.27 93.5821C166.316 93.1487 167.266 92.5134 168.066 91.7126L177.085 82.6928L186.115 91.7126C186.914 92.5131 187.863 93.1481 188.908 93.5815C189.953 94.0148 191.073 94.2378 192.204 94.2378C193.335 94.2378 194.455 94.0148 195.5 93.5815C196.545 93.1481 197.494 92.5131 198.293 91.7126C199.094 90.9126 199.729 89.9626 200.163 88.9169C200.596 87.8713 200.819 86.7504 200.819 85.6185C200.819 84.4866 200.596 83.3657 200.163 82.3201C199.729 81.2744 199.094 80.3244 198.293 79.5244L189.224 70.5046Z" fill="url(#paint7_linear_1_1170)"/>
</g>
<defs>
<linearGradient id="paint0_linear_1_1170" x1="22.6398" y1="14.5447" x2="43.7388" y2="125.01" gradientUnits="userSpaceOnUse">
<stop stop-color="#EDEDED"/>
<stop offset="1" stop-color="#EBEBEB" stop-opacity="0"/>
</linearGradient>
<linearGradient id="paint1_linear_1_1170" x1="61.3232" y1="7.15842" x2="82.4222" y2="117.624" gradientUnits="userSpaceOnUse">
<stop stop-color="#EDEDED"/>
<stop offset="1" stop-color="#EBEBEB" stop-opacity="0"/>
</linearGradient>
<linearGradient id="paint2_linear_1_1170" x1="110.709" y1="-2.27723" x2="131.808" y2="108.188" gradientUnits="userSpaceOnUse">
<stop stop-color="#EDEDED"/>
<stop offset="1" stop-color="#EBEBEB" stop-opacity="0"/>
</linearGradient>
<linearGradient id="paint3_linear_1_1170" x1="163.174" y1="-2.09934" x2="184.273" y2="108.366" gradientUnits="userSpaceOnUse">
<stop stop-color="#EDEDED"/>
<stop offset="1" stop-color="#EBEBEB" stop-opacity="0"/>
</linearGradient>
<linearGradient id="paint4_linear_1_1170" x1="22.6398" y1="14.5447" x2="43.7388" y2="125.01" gradientUnits="userSpaceOnUse">
<stop stop-color="#EDEDED"/>
<stop offset="1" stop-color="#EBEBEB" stop-opacity="0"/>
</linearGradient>
<linearGradient id="paint5_linear_1_1170" x1="61.3232" y1="7.15842" x2="82.4222" y2="117.624" gradientUnits="userSpaceOnUse">
<stop stop-color="#EDEDED"/>
<stop offset="1" stop-color="#EBEBEB" stop-opacity="0"/>
</linearGradient>
<linearGradient id="paint6_linear_1_1170" x1="110.709" y1="-2.27723" x2="131.808" y2="108.188" gradientUnits="userSpaceOnUse">
<stop stop-color="#EDEDED"/>
<stop offset="1" stop-color="#EBEBEB" stop-opacity="0"/>
</linearGradient>
<linearGradient id="paint7_linear_1_1170" x1="163.174" y1="-2.09934" x2="184.273" y2="108.366" gradientUnits="userSpaceOnUse">
<stop stop-color="#EDEDED"/>
<stop offset="1" stop-color="#EBEBEB" stop-opacity="0"/>
</linearGradient>
</defs>
</svg>
